<svg width="24" height="24" viewBox="0 0 24 24" fill="none" xmlns="http://www.w3.org/2000/svg">
<g clip-path="url(#clip0_0_596)">
<path d="M18.6298 7.14C20.5984 7.14 22.1998 5.5386 22.1998 3.57C22.1998 1.6014 20.5984 0 18.6298 0C16.6612 0 15.0598 1.6014 15.0598 3.57C15.0598 5.5386 16.6612 7.14 18.6298 7.14ZM20.1598 15.3V8.9658C19.6498 9.1086 19.1398 9.18 18.6298 9.18C18.4564 9.18 18.2932 9.18 18.1198 9.18V15.3C18.1198 16.9932 16.753 18.36 15.0598 18.36H6.8998C5.2066 18.36 3.8398 16.9932 3.8398 15.3V7.14C3.8398 5.4468 5.2066 4.08 6.8998 4.08H13.0198C13.0198 3.9168 13.0198 3.7434 13.0198 3.57C13.0198 3.06 13.0912 2.55 13.234 2.04H6.8998C4.0846 2.04 1.7998 4.3248 1.7998 7.14V15.3C1.7998 18.1152 4.0846 20.4 6.8998 20.4H15.0598C17.875 20.4 20.1598 18.1152 20.1598 15.3Z" fill="black"/>
</g>
<defs>
<clipPath id="clip0_0_596">
<rect width="24" height="24" fill="white"/>
</clipPath>
</defs>
</svg>
